<svg width="1440" height="949" xmlns="http://www.w3.org/2000/svg">
  <defs>
    <linearGradient x1="33.58063%" y1="0%" x2="63.83346%" y2="52.98807%" id="a">
      <stop stop-color="#00A0EA" offset="0%"/>
      <stop stop-color="#7BCFF5" offset="100%"/>
    </linearGradient>
    <linearGradient x1="0%" y1="91.89494%" y2="0%" id="b">
      <stop stop-color="#00A0EA" offset="0%"/>
      <stop stop-color="#7BCFF5" offset="100%"/>
    </linearGradient>
  </defs>
  <g fill="none" fill-rule="evenodd">
    <path d="M2460.54962 2018.46309c148.52463 49.41168 231.93306 116.31725 171.72787 206.20163-83.0351 123.96841-546.0697 71.20153-772.30655 140.59207-249.28527 76.45815-245.3451 218.6435-593.85739 219.73325-649.1252 2.03113-1183.46747-307.08289-1033.72878-545.30796 10.79358-15.57891-17.64387 28.06976 0 0 91.97622-132.77191 434.4936-164.07586 788.45257-163.77077V1631h1439.71224v387.46307z" fill="url(#a)" opacity=".82665" transform="translate(-1020 -1636)"/>
    <path d="M106.2142 1455.85144c10.72103-25.85987-17.52532 46.59381 0 0 140.64007-339.27937 871.03906-279.40334 1324.76187-243.42684 401.71698 31.85192 1214.86428 161.61564 1059.00396 550.48485-82.47712 205.7787-542.4002 118.18946-767.11678 233.3728-247.61011 126.91507-243.69643 362.93261-589.86677 364.74153-644.76318 3.37154-1175.51476-509.7357-1026.78229-905.17234z" fill="url(#b)" transform="translate(-1020 -1636)"/>
    <path d="M349.08476 591.19803c9.97704-14.40282-15.95728 1259.83149.35183 1233.88077 130.88012-188.96384 810.23995-1371.01296 1232.47587-1350.97562 373.83912 17.74014 1130.90846 1305.41035 985.86434 1521.99356-76.75348 114.60978-504.75938 65.82638-713.88136 129.97849-230.42677 70.68617-226.78468 202.13766-548.93192 203.14515-600.0187 1.8778-1094.28968-1517.78136-955.87876-1738.02235z" fill="url(#b)" opacity=".6434" transform="rotate(-34 -1729.74083 2251.6716)"/>
  </g>
</svg>
